<?xml version="1.0" standalone="no"?><svg xmlns="http://www.w3.org/2000/svg" viewBox="0 0 1440 320"><path fill="#a2d9ff" fill-opacity="1" d="M0,288L40,288C80,288,160,288,240,256C320,224,400,160,480,149.3C560,139,640,181,720,218.7C800,256,880,288,960,272C1040,256,1120,192,1200,160C1280,128,1360,128,1400,128L1440,128L1440,320L1400,320C1360,320,1280,320,1200,320C1120,320,1040,320,960,320C880,320,800,320,720,320C640,320,560,320,480,320C400,320,320,320,240,320C160,320,80,320,40,320L0,320Z"></path></svg>